# This file uses centimeters as units for non-parametric coordinates.

mtllib Eettafel.mtl
g default
v 3.092400 0.053413 1.454285
v 2.837243 2.839661 1.104645
v 3.092400 0.053413 1.133484
v 2.837243 2.839661 0.783813
v 2.771569 0.053413 1.454285
v 2.516442 2.839661 1.104645
v 2.771569 0.053413 1.133484
v 2.516442 2.839661 0.783813
vt 0.185954 0.749283
vt 0.213116 0.752674
vt 0.213145 0.993247
vt 0.185984 0.989856
vt 0.240376 0.755147
vt 0.131564 0.995733
vt 0.158695 0.751763
vt 0.158724 0.992336
vt 0.240405 0.995720
vt 0.131534 0.755160
vn 1.000000 0.000000 -0.000000
vn 1.000000 0.000000 -0.000000
vn 1.000000 0.000000 -0.000000
vn 1.000000 0.000000 -0.000000
vn 0.000000 -0.000000 -1.000000
vn 0.000000 -0.000000 -1.000000
vn 0.000000 -0.000000 -1.000000
vn 0.000000 -0.000000 -1.000000
vn -1.000000 0.000000 0.000000
vn -1.000000 0.000000 0.000000
vn -1.000000 0.000000 0.000000
vn -1.000000 0.000000 0.000000
vn -0.000000 0.000000 1.000000
vn -0.000000 0.000000 1.000000
vn -0.000000 0.000000 1.000000
vn -0.000000 0.000000 1.000000
s off
g polySurface20 group1
usemtl standardSurface1SG
f 1/1/1 3/2/2 4/3/3 2/4/4
f 3/2/5 7/5/6 8/9/7 4/3/8
f 7/10/9 5/7/10 6/8/11 8/6/12
f 5/7/13 1/1/14 2/4/15 6/8/16
g default
v -4.044135 0.053413 -1.932617
v -3.789008 2.839661 -1.582947
v -4.044135 0.053413 -1.611816
v -3.789008 2.839661 -1.262146
v -3.723304 0.053413 -1.932617
v -3.468177 2.839661 -1.582947
v -3.723304 0.053413 -1.611816
v -3.468177 2.839661 -1.262146
vt 0.308450 0.750453
vt 0.335612 0.753838
vt 0.335695 0.994411
vt 0.308533 0.991026
vt 0.362873 0.756306
vt 0.254114 0.996916
vt 0.281191 0.752939
vt 0.281274 0.993513
vt 0.362956 0.996879
vt 0.254031 0.756343
vn -1.000000 0.000000 -0.000000
vn -1.000000 0.000000 -0.000000
vn -1.000000 0.000000 -0.000000
vn -1.000000 0.000000 -0.000000
vn 0.000000 -0.000000 1.000000
vn 0.000000 -0.000000 1.000000
vn 0.000000 -0.000000 1.000000
vn 0.000000 -0.000000 1.000000
vn 1.000000 0.000000 0.000000
vn 1.000000 0.000000 0.000000
vn 1.000000 0.000000 0.000000
vn 1.000000 0.000000 0.000000
vn -0.000000 0.000000 -1.000000
vn -0.000000 0.000000 -1.000000
vn -0.000000 0.000000 -1.000000
vn -0.000000 0.000000 -1.000000
s off
g group1 polySurface27
usemtl standardSurface1SG
f 9/11/17 11/12/18 12/13/19 10/14/20
f 11/12/21 15/15/22 16/19/23 12/13/24
f 15/20/25 13/17/26 14/18/27 16/16/28
f 13/17/29 9/11/30 10/14/31 14/18/32
g default
v -3.971542 0.809336 1.241779
v -3.707597 0.809336 1.241779
v -3.943876 1.093256 1.241779
v -3.679929 1.093256 1.241779
v -3.943876 1.093256 -1.718223
v -3.679929 1.093256 -1.718223
v -3.971542 0.809336 -1.718223
v -3.707597 0.809336 -1.718223
vt 0.805856 0.812762
vt 0.805901 0.840629
vt 0.493397 0.841131
vt 0.493352 0.813264
vt 0.493304 0.783147
vt 0.493259 0.755281
vt 0.805763 0.754779
vt 0.805807 0.782645
vt 0.805949 0.870746
vt 0.493445 0.871248
vn 0.000000 1.000000 0.000000
vn 0.000000 1.000000 0.000000
vn 0.000000 1.000000 0.000000
vn 0.000000 1.000000 0.000000
vn 0.000000 -1.000000 0.000000
vn 0.000000 -1.000000 0.000000
vn 0.000000 -1.000000 0.000000
vn 0.000000 -1.000000 0.000000
vn 0.995285 -0.096991 0.000000
vn 0.995285 -0.096991 0.000000
vn 0.995285 -0.096991 0.000000
vn 0.995285 -0.096991 0.000000
vn -0.995286 0.096984 0.000000
vn -0.995286 0.096984 0.000000
vn -0.995286 0.096984 0.000000
vn -0.995286 0.096984 0.000000
s off
g group1 polySurface25
usemtl standardSurface1SG
f 19/21/33 20/22/34 22/23/35 21/24/36
f 23/25/37 24/26/38 18/27/39 17/28/40
f 18/29/41 24/30/42 22/23/43 20/22/44
f 23/25/45 17/28/46 19/21/47 21/24/48
g default
v -2.602805 3.056702 0.300720
v -2.602805 3.230057 0.300720
v -2.602805 3.230057 -0.898560
v -2.602805 3.056702 -0.898560
v -1.769660 3.230057 0.338440
v -1.769652 3.056702 0.338440
v -1.769660 3.056702 -0.898560
v -1.769652 3.230057 -0.898560
v -0.151525 3.230057 0.338440
v -0.151525 3.056702 0.338440
v -0.151525 3.056702 -0.822479
v -0.151525 3.230057 -0.822479
v 1.193963 3.230057 0.304077
v 1.193963 3.056702 0.304077
v 1.193963 3.056702 -0.829834
v 1.193963 3.230057 -0.829834
v 2.175790 3.230057 0.338440
v 2.175790 3.056702 0.338440
v 2.175790 3.056702 -0.898560
v 2.175790 3.230057 -0.898560
v -3.750983 3.056702 0.338440
v -3.750983 3.230057 0.338440
v -3.750983 3.230057 -0.860748
v -3.750983 3.056702 -0.860748
v -4.685340 3.230057 -0.898560
v -4.747199 3.230057 -0.836731
v -4.685340 3.056702 -0.898560
v -4.747199 3.056702 -0.836731
v -4.773322 3.230057 0.338440
v -4.835151 3.230057 0.276611
v -4.773322 3.056702 0.338440
v -4.835151 3.056702 0.276611
v 3.863610 3.230057 0.276611
v 3.801751 3.230057 0.338440
v 3.801751 3.056702 0.338440
v 3.863610 3.056702 0.276611
v 3.864892 3.230057 -0.810547
v 3.926721 3.230057 -0.748718
v 3.864892 3.056702 -0.810547
v 3.926721 3.056702 -0.748718
vt 0.004488 0.302373
vt 0.019053 0.305308
vt 0.015284 0.399810
vt 0.000000 0.401668
vt 0.002627 0.409320
vt 0.019447 0.406062
vt 0.108302 0.405060
vt 0.095538 0.639386
vt 0.795454 0.399889
vt 0.780955 0.397002
vt 0.783301 0.308808
vt 0.798591 0.306812
vt 0.107637 0.283133
vt 0.108314 0.298453
vt 0.023358 0.299666
vt 0.022620 0.284485
vt 0.631039 0.421298
vt 0.630725 0.406033
vt 0.776434 0.402519
vt 0.777165 0.417780
vt 0.617814 0.530381
vt 0.795838 0.299218
vt 0.779141 0.302822
vt 0.631518 0.296916
vt 0.209593 0.418010
vt 0.209662 0.402673
vt 0.283480 0.404756
vt 0.283359 0.420024
vt 0.282630 0.296021
vt 0.209488 0.296137
vt 0.270136 0.530381
vt 0.209244 0.280838
vt 0.425698 0.404016
vt 0.425802 0.419312
vt 0.425907 0.301317
vt 0.412727 0.537084
vt 0.544333 0.402447
vt 0.544288 0.417777
vt 0.544731 0.301491
vt 0.531294 0.536437
vt 0.772108 0.543585
vt 0.766658 0.538135
vt 0.766545 0.633936
vt 0.761096 0.639386
vt 0.617814 0.639386
vt 0.005450 0.639386
vt 0.000000 0.633936
vt 0.007751 0.535831
vt 0.013201 0.530381
vt 0.095538 0.533713
vt 0.196718 0.530381
vt 0.108303 0.420355
vt 0.631801 0.281660
vt 0.531294 0.636357
vt 0.544569 0.286142
vt 0.412727 0.639386
vt 0.426165 0.286020
vt 0.270136 0.639386
vt 0.282894 0.280754
vt 0.196718 0.636064
vt 0.779981 0.287576
vt 0.792300 0.407683
vt 0.019237 0.421296
vt 0.007491 0.294615
vn -0.996894 0.000000 -0.078753
vn -0.996894 0.000000 -0.078753
vn -0.996894 0.000000 -0.078753
vn -0.996894 0.000000 -0.078753
vn 0.000000 0.000000 1.000000
vn 0.000000 0.000000 1.000000
vn 0.017376 0.000000 0.999849
vn 0.017376 0.000000 0.999849
vn 0.998111 0.000000 0.061435
vn 0.998111 0.000000 0.061435
vn 0.998111 0.000000 0.061435
vn 0.998111 0.000000 0.061435
vn 0.000000 0.000000 -1.000000
vn 0.000000 0.000000 -1.000000
vn 0.040435 0.000000 -0.999182
vn 0.040435 0.000000 -0.999182
vn 0.000000 -1.000000 0.000000
vn 0.000000 -1.000000 0.000000
vn 0.000000 -1.000000 0.000000
vn 0.000000 -1.000000 0.000000
vn 0.000000 -1.000000 0.000003
vn 0.000000 -1.000000 0.000000
vn -0.013176 0.000000 0.999913
vn -0.013176 0.000000 0.999913
vn 0.000000 0.000000 1.000000
vn 0.000000 0.000000 1.000000
vn 0.000000 1.000000 0.000000
vn 0.000000 1.000000 0.000000
vn 0.000000 1.000000 0.000000
vn 0.000000 1.000000 0.000000
vn 0.000000 1.000000 0.000000
vn 0.000000 1.000000 0.000000
vn 0.052036 0.000000 -0.998645
vn 0.052036 0.000000 -0.998645
vn 0.007221 0.000000 -0.999974
vn 0.007221 0.000000 -0.999974
vn 0.000000 -0.000000 1.000000
vn 0.000000 -0.000000 1.000000
vn -0.015385 -0.000000 0.999882
vn -0.015386 -0.000000 0.999882
vn 0.000000 -1.000000 0.000000
vn 0.000000 -1.000000 0.000000
vn 0.000000 -1.000000 0.000000
vn 0.000000 -1.000000 0.000000
vn 0.031023 -0.000001 -0.999519
vn 0.031022 -0.000001 -0.999519
vn -0.019080 0.000000 -0.999818
vn -0.019080 0.000000 -0.999818
vn 0.000000 1.000000 0.000000
vn 0.000000 1.000000 0.000000
vn 0.000000 1.000000 0.000000
vn 0.000000 1.000000 0.000000
vn 0.011594 0.000000 0.999933
vn 0.011594 0.000000 0.999933
vn 0.000000 -1.000000 0.000000
vn 0.000000 -1.000000 0.000000
vn 0.023184 -0.000001 -0.999731
vn 0.023184 -0.000001 -0.999731
vn 0.000000 1.000000 0.000000
vn 0.000000 1.000000 0.000000
vn -0.000000 0.000000 1.000000
vn -0.000000 0.000000 1.000000
vn 0.000000 -1.000000 0.000000
vn 0.000000 -1.000000 0.000000
vn -0.032673 0.000000 -0.999466
vn -0.032673 0.000000 -0.999466
vn 0.000000 1.000000 0.000000
vn 0.000000 1.000000 0.000000
vn 0.000000 -1.000000 0.000000
vn 0.000000 -1.000000 -0.000000
vn 0.000000 1.000000 0.000000
vn 0.000000 1.000000 0.000000
vn 0.000000 1.000000 0.000000
vn 0.000000 1.000000 0.000001
vn 0.000000 1.000000 0.000000
vn 0.000000 1.000000 0.000000
vn 0.000000 -1.000000 0.000000
vn 0.000000 -1.000000 -0.000000
vn 0.000000 -1.000000 -0.000002
vn 0.000000 -1.000000 -0.000000
vn -0.706932 0.000000 -0.707282
vn -0.706932 0.000000 -0.707282
vn -0.706932 0.000000 -0.707282
vn -0.706932 0.000000 -0.707282
vn -0.707106 0.000000 0.707107
vn -0.707106 0.000000 0.707107
vn -0.707106 0.000000 0.707107
vn -0.707106 0.000000 0.707107
vn 0.706932 0.000000 0.707282
vn 0.706932 0.000000 0.707282
vn 0.706932 0.000000 0.707282
vn 0.706932 0.000000 0.707282
vn 0.707106 0.000000 -0.707107
vn 0.707106 0.000000 -0.707107
vn 0.707106 0.000000 -0.707107
vn 0.707106 0.000000 -0.707107
s off
g group1 polySurface23
usemtl standardSurface1SG
f 50/31/49 52/32/50 56/33/51 54/34/52
s 1
f 53/93/53 55/36/54 45/37/55 46/82/56
s off
f 57/39/57 60/40/58 64/41/59 62/42/60
s 2
f 47/43/61 48/44/62 51/45/63 49/46/64
s 3
f 45/37/65 55/36/66 48/44/67
f 55/36/66 56/33/68 48/44/67
f 51/45/69 48/44/67 52/32/70
f 48/44/67 56/33/68 52/32/70
s 1
f 41/47/71 42/48/72 59/49/73 58/50/74
s 5
f 44/51/75 41/75/76 61/72/77
f 61/72/77 41/75/76 62/71/78
f 58/74/79 57/73/80 41/75/76
f 41/75/76 57/73/80 62/71/78
s 2
f 61/91/81 63/53/82 43/54/83 44/83/84
s 1
f 26/55/85 25/56/86 30/57/87 29/58/88
s 3
f 31/59/89 30/57/90 25/56/91 28/60/92
s 2
f 32/89/93 31/59/94 28/60/95 27/62/96
s 5
f 27/81/97 26/90/98 29/88/99 32/61/100
s 1
f 29/58/88 30/57/87 34/63/101 33/64/102
s 3
f 35/65/103 34/63/104 30/57/90 31/59/89
s 2
f 36/87/105 35/65/106 31/59/94 32/89/93
s 5
f 32/61/100 29/88/99 33/86/107 36/66/108
s 1
f 33/64/102 34/63/101 38/67/109 37/68/110
s 3
f 39/69/111 38/67/112 34/63/104 35/65/103
s 2
f 40/85/113 39/69/114 35/65/106 36/87/105
s 5
f 36/66/108 33/86/107 37/84/115 40/70/116
s 1
f 37/68/110 38/67/109 42/48/72 41/47/71
s 3
f 43/54/117 42/48/118 38/67/112 39/69/111
s 2
f 44/83/84 43/54/83 39/69/114 40/85/113
s 5
f 40/70/116 37/84/115 41/75/76 44/51/75
s 1
f 46/82/56 45/37/55 25/56/86 26/55/85
s 5
f 47/80/119 46/38/120 26/90/98 27/81/97
s 2
f 27/62/96 28/60/95 48/44/62 47/43/61
s 3
f 28/60/92 25/56/91 45/37/65 48/44/67
s 5
f 46/38/120 47/80/119 53/76/121
f 53/76/121 47/80/119 54/77/122
f 49/79/123 50/78/124 47/80/119
f 54/77/122 47/80/119 50/78/124
s 3
f 43/54/117 63/53/125 42/48/118
f 63/53/125 64/41/126 42/48/118
f 59/49/127 42/48/118 60/40/128
f 60/40/128 42/48/118 64/41/126
s off
f 50/31/129 49/94/130 51/45/131 52/32/132
f 53/35/133 54/34/134 56/33/135 55/36/136
f 57/39/137 58/92/138 59/49/139 60/40/140
f 61/52/141 62/42/142 64/41/143 63/53/144
g default
v -0.506411 0.841573 -0.058625
v -0.506411 1.037856 -0.058625
v -0.506411 1.037856 -0.398344
v -0.506411 0.841573 -0.398344
v -2.263776 0.878557 -0.058625
v -2.263776 1.074839 -0.058625
v -2.263776 1.074839 -0.398344
v -2.263776 0.878557 -0.398344
v 1.250954 0.878557 -0.058625
v 1.250954 1.074839 -0.058625
v 1.250954 1.074839 -0.398344
v 1.250954 0.878557 -0.398344
v 0.372271 0.851522 -0.058625
v 0.372271 1.047804 -0.058625
v 0.372271 1.047804 -0.398344
v 0.372271 0.851522 -0.398344
v -1.385093 0.851522 -0.058625
v -1.385093 1.047804 -0.058625
v -1.385093 1.047804 -0.398344
v -1.385093 0.851522 -0.398344
v -0.945752 0.844106 -0.058625
v -0.945752 1.040388 -0.058625
v -0.945752 1.040388 -0.398344
v -0.945752 0.844106 -0.398344
v -0.067070 0.844106 -0.058625
v -0.067070 1.040388 -0.058625
v -0.067070 1.040388 -0.398344
v -0.067070 0.844106 -0.398344
v 0.811613 0.863288 -0.058625
v 0.811613 1.059569 -0.058625
v 0.811613 1.059569 -0.398344
v 0.811613 0.863288 -0.398344
v -4.002660 1.128520 -0.058625
v -3.982221 1.146191 -0.058625
v -4.002660 1.128520 -0.398344
v -3.982221 1.146191 -0.398344
v 2.975330 1.146183 -0.058625
v 2.995488 1.128191 -0.058625
v 2.975330 1.146183 -0.398344
v 2.995488 1.128191 -0.398344
v -4.001425 0.949869 -0.058625
v -4.019100 0.970305 -0.058625
v -4.019100 0.970305 -0.398344
v -4.001425 0.949869 -0.398344
v 2.988925 0.949883 -0.058625
v 3.006919 0.970038 -0.058625
v 2.988925 0.949883 -0.398344
v 3.006919 0.970038 -0.398344
vt 0.884310 0.351135
vt 0.887091 0.380577
vt 0.886997 0.525181
vt 0.858388 0.525082
vt 0.903631 0.379540
vt 0.932193 0.379387
vt 0.932121 0.525636
vt 0.903522 0.525728
vt 0.901931 0.968182
vt 0.901221 0.996783
vt 0.887395 0.995862
vt 0.888741 0.967993
vt 0.900445 0.350373
vt 0.901908 0.378388
vt 0.888695 0.379209
vt 0.886570 0.350824
vt 0.886972 0.673323
vt 0.903512 0.673325
vt 0.903502 0.710200
vt 0.886978 0.710378
vt 0.858376 0.673324
vt 0.858376 0.710386
vt 0.932102 0.673330
vt 0.932095 0.710219
vt 0.903512 0.599581
vt 0.886991 0.599192
vt 0.858376 0.599188
vt 0.932103 0.599550
vt 0.886956 0.821484
vt 0.903485 0.820908
vt 0.903636 0.966983
vt 0.887119 0.966679
vt 0.858358 0.821569
vt 0.858575 0.966830
vt 0.932087 0.821030
vt 0.903500 0.996708
vt 0.886979 0.747432
vt 0.903498 0.747087
vt 0.903494 0.783991
vt 0.886974 0.784474
vt 0.858377 0.747445
vt 0.858368 0.784503
vt 0.932093 0.747122
vt 0.932095 0.784053
vt 0.903505 0.636452
vt 0.886981 0.636265
vt 0.858381 0.636260
vt 0.932098 0.636444
vt 0.885085 0.995614
vt 0.858568 0.380403
vt 0.843668 0.968955
vt 0.842033 0.967380
vt 0.842009 0.379370
vt 0.843667 0.377825
vt 0.841882 0.525622
vt 0.856996 0.968472
vt 0.857015 0.378736
vt 0.841859 0.784029
vt 0.841853 0.820997
vt 0.841857 0.710214
vt 0.841863 0.747108
vt 0.841862 0.636438
vt 0.841840 0.673325
vt 0.841862 0.599567
vt 0.932186 0.967159
vt 0.902767 0.350385
vn 0.041486 0.999139 0.000000
vn 0.041486 0.999139 0.000000
vn 0.037856 0.999283 0.000000
vn 0.037856 0.999283 0.000000
vn -0.041005 -0.999159 0.000000
vn -0.041005 -0.999159 0.000000
vn -0.037563 -0.999294 0.000000
vn -0.037563 -0.999294 0.000000
vn 0.997398 0.072092 0.000000
vn 0.997398 0.072092 0.000000
vn 0.997398 0.072092 0.000000
vn 0.997398 0.072092 0.000000
vn -0.994645 0.103352 0.000000
vn -0.994645 0.103352 0.000000
vn -0.994645 0.103352 0.000000
vn -0.994645 0.103352 0.000000
vn 0.000000 0.000000 1.000000
vn 0.000000 0.000000 1.000000
vn -0.000000 0.000000 1.000000
vn -0.000000 0.000000 1.000000
vn 0.000000 1.000000 0.000000
vn 0.000000 1.000000 0.000000
vn -0.011321 0.999936 0.000000
vn -0.011321 0.999936 0.000000
vn 0.000000 0.000000 -1.000000
vn 0.000000 0.000000 -1.000000
vn -0.000000 0.000000 -1.000000
vn -0.000000 0.000000 -1.000000
vn 0.000000 -1.000000 0.000000
vn 0.000000 -1.000000 0.000000
vn 0.011321 -0.999936 0.000000
vn 0.011321 -0.999936 0.000000
vn -0.000000 0.000000 1.000000
vn -0.000000 0.000000 1.000000
vn 0.000000 0.000000 1.000000
vn 0.000000 0.000000 1.000000
vn 0.026130 0.999659 0.000000
vn 0.026130 0.999659 0.000000
vn -0.000000 0.000000 -1.000000
vn -0.000000 0.000000 -1.000000
vn 0.000000 0.000000 -1.000000
vn 0.000000 0.000000 -1.000000
vn -0.026130 -0.999659 0.000000
vn -0.026130 -0.999659 0.000000
vn 0.000000 0.000000 1.000000
vn 0.000000 0.000000 1.000000
vn 0.000000 0.000000 1.000000
vn 0.000000 0.000000 1.000000
vn 0.000000 0.000000 1.000000
vn 0.000000 0.000000 1.000000
vn -0.039998 0.999200 0.000000
vn -0.039998 0.999200 0.000000
vn -0.041338 0.999145 0.000000
vn -0.041338 0.999145 0.000000
vn -0.000000 0.000000 -1.000000
vn -0.000000 0.000000 -1.000000
vn 0.000000 0.000000 -1.000000
vn 0.000000 0.000000 -1.000000
vn 0.000000 0.000000 -1.000000
vn 0.000000 0.000000 -1.000000
vn 0.039740 -0.999210 0.000000
vn 0.039740 -0.999210 0.000000
vn 0.041005 -0.999159 0.000000
vn 0.041005 -0.999159 0.000000
vn -0.000000 0.000000 1.000000
vn -0.000000 0.000000 1.000000
vn -0.000000 0.000000 1.000000
vn -0.000000 0.000000 1.000000
vn -0.021824 0.999762 0.000000
vn -0.021824 0.999762 0.000000
vn -0.030754 0.999527 0.000000
vn -0.030754 0.999527 0.000000
vn -0.000000 0.000000 -1.000000
vn -0.000000 0.000000 -1.000000
vn -0.000000 0.000000 -1.000000
vn -0.000000 0.000000 -1.000000
vn 0.021824 -0.999762 0.000000
vn 0.021824 -0.999762 0.000000
vn 0.030754 -0.999527 0.000000
vn 0.030754 -0.999527 0.000000
vn 0.000000 0.000000 1.000000
vn 0.000000 0.000000 1.000000
vn 0.011321 0.999936 0.000000
vn 0.011321 0.999936 0.000000
vn 0.000000 0.000000 -1.000000
vn 0.000000 0.000000 -1.000000
vn -0.011321 -0.999936 0.000000
vn -0.011321 -0.999936 0.000000
vn -0.000000 0.000000 -1.000000
vn 0.000000 0.000000 -1.000000
vn 0.000000 0.000000 -1.000000
vn 0.000000 0.000000 -1.000000
vn -0.000000 0.000000 1.000000
vn 0.000000 0.000000 1.000000
vn 0.000000 0.000000 1.000000
vn 0.000000 0.000000 1.000000
vn -0.654018 0.756479 0.000000
vn -0.654018 0.756479 0.000000
vn -0.654018 0.756479 0.000000
vn -0.654018 0.756479 0.000000
vn 0.665866 0.746071 0.000000
vn 0.665866 0.746071 0.000000
vn 0.665866 0.746071 0.000000
vn 0.665866 0.746071 0.000000
vn -0.756343 -0.654175 0.000000
vn -0.756343 -0.654175 0.000000
vn -0.756343 -0.654175 0.000000
vn -0.756343 -0.654175 0.000000
vn 0.745965 -0.665986 0.000000
vn 0.745965 -0.665986 0.000000
vn 0.745965 -0.665986 0.000000
vn 0.745965 -0.665986 0.000000
s 1
g group1 pCube6
usemtl standardSurface1SG
f 100/144/145 98/96/146 70/97/147 71/98/148
s 2
f 105/99/149 108/100/150 72/101/151 69/102/152
s off
f 110/103/153 112/104/154 104/105/155 102/106/156
f 107/107/157 106/108/158 97/109/159 99/110/160
s 3
f 66/111/161 65/112/162 89/113/163 90/114/164
s 1
f 67/115/165 66/111/166 90/114/167 91/116/168
s 5
f 68/157/169 67/115/170 91/116/171 92/154/172
s 2
f 65/112/173 68/117/174 92/118/175 89/113/176
s 3
f 70/97/177 69/102/178 81/119/179 82/120/180
s 1
f 71/98/148 70/97/147 82/120/181 83/121/182
s 5
f 72/149/183 71/98/184 83/121/185 84/158/186
s 2
f 69/102/152 72/101/151 84/122/187 81/119/188
s 3
f 73/124/189 109/125/190 74/123/191
f 109/125/190 110/103/192 74/123/191
f 101/126/193 74/123/191 102/106/194
f 74/123/191 110/103/192 102/106/194
s 1
f 75/127/195 74/123/196 101/126/197 103/128/198
s 5
f 76/153/199 75/127/200 111/146/201
f 111/146/201 75/127/200 112/145/202
f 103/128/203 104/150/204 75/127/200
f 75/127/200 104/150/204 112/145/202
s 2
f 73/124/205 76/129/206 111/159/207 109/125/208
s 3
f 78/131/209 77/132/210 93/133/211 94/134/212
s 1
f 79/135/213 78/131/214 94/134/215 95/136/216
s 5
f 80/155/217 79/135/218 95/136/219 96/152/220
s 2
f 77/132/221 80/137/222 96/138/223 93/133/224
s 3
f 82/120/180 81/119/179 85/139/225 86/140/226
s 1
f 83/121/182 82/120/181 86/140/227 87/141/228
s 5
f 84/158/186 83/121/185 87/141/229 88/156/230
s 2
f 81/119/188 84/122/187 88/142/231 85/139/232
s 3
f 86/140/226 85/139/225 65/112/162 66/111/161
s 1
f 87/141/228 86/140/227 66/111/166 67/115/165
s 5
f 88/156/230 87/141/229 67/115/170 68/157/169
s 2
f 85/139/232 88/142/231 68/117/174 65/112/173
s 3
f 90/114/164 89/113/163 77/132/210 78/131/209
s 1
f 91/116/168 90/114/167 78/131/214 79/135/213
s 5
f 92/154/172 91/116/171 79/135/218 80/155/217
s 2
f 89/113/176 92/118/175 80/137/222 77/132/221
s 3
f 94/134/212 93/133/211 73/124/189 74/123/191
s 1
f 95/136/216 94/134/215 74/123/196 75/127/195
s 5
f 96/152/220 95/136/219 75/127/200 76/153/199
s 2
f 93/133/224 96/138/223 76/129/206 73/124/205
s 5
f 72/149/183 108/147/233 71/98/184
f 108/147/233 107/148/234 71/98/184
f 100/144/235 71/98/184 99/151/236
f 99/151/236 71/98/184 107/148/234
s 3
f 69/102/178 70/97/177 105/99/237
f 105/99/237 70/97/177 106/108/238
f 98/96/239 97/109/240 70/97/177
f 106/108/238 70/97/177 97/109/240
s off
f 97/109/241 98/96/242 100/95/243 99/110/244
f 101/126/245 102/106/246 104/105/247 103/143/248
f 105/99/249 106/108/250 107/107/251 108/160/252
f 110/103/253 109/125/254 111/130/255 112/104/256
g default
v -2.602805 3.230057 -2.130920
v -2.602805 3.056702 -2.130920
v -2.602805 3.056702 -0.931610
v -2.602805 3.230057 -0.931610
v -1.769660 3.056702 -2.168579
v -1.769652 3.230057 -2.168579
v -1.769660 3.230057 -0.931610
v -1.769652 3.056702 -0.931610
v -0.151525 3.056702 -2.168579
v -0.151525 3.230057 -2.168579
v -0.151525 3.230057 -0.924072
v -0.151525 3.056702 -0.924072
v 1.193963 3.056702 -2.134216
v 1.193963 3.230057 -2.134216
v 1.193963 3.230057 -0.927277
v 1.193963 3.056702 -0.927277
v 2.175790 3.056702 -2.168579
v 2.175790 3.230057 -2.168579
v 2.175790 3.230057 -0.931610
v 2.175790 3.056702 -0.931610
v -3.750983 3.230057 -2.168579
v -3.750983 3.056702 -2.168579
v -3.750983 3.056702 -0.969421
v -3.750983 3.230057 -0.969421
v -4.685340 3.056702 -0.931610
v -4.747199 3.056702 -0.993469
v -4.685340 3.230057 -0.931610
v -4.747199 3.230057 -0.993469
v -4.773322 3.056702 -2.168579
v -4.835151 3.056702 -2.106750
v -4.773322 3.230057 -2.168579
v -4.835151 3.230057 -2.106750
v 3.863610 3.056702 -2.106750
v 3.801751 3.056702 -2.168579
v 3.801751 3.230057 -2.168579
v 3.863610 3.230057 -2.106750
v 3.864892 3.056702 -1.019623
v 3.926721 3.056702 -1.081451
v 3.864892 3.230057 -1.019623
v 3.926721 3.230057 -1.081451
vt 0.004491 0.023031
vt 0.019064 0.025968
vt 0.015293 0.120522
vt 0.000000 0.122382
vt 0.002628 0.130038
vt 0.019458 0.126778
vt 0.108363 0.125776
vt 0.095652 0.530381
vt 0.795900 0.120602
vt 0.781392 0.117714
vt 0.783741 0.029470
vt 0.799039 0.027473
vt 0.107697 0.003780
vt 0.108374 0.019110
vt 0.023371 0.020323
vt 0.022633 0.005134
vt 0.631393 0.142023
vt 0.631079 0.126749
vt 0.776870 0.123233
vt 0.777601 0.138503
vt 0.618545 0.421246
vt 0.796284 0.019875
vt 0.779578 0.023481
vt 0.631872 0.017571
vt 0.209711 0.138733
vt 0.209779 0.123388
vt 0.283639 0.125472
vt 0.283518 0.140748
vt 0.282789 0.016676
vt 0.209605 0.016792
vt 0.270456 0.421246
vt 0.209361 0.001485
vt 0.425937 0.124731
vt 0.426041 0.140036
vt 0.426146 0.015306
vt 0.413216 0.421568
vt 0.544638 0.123161
vt 0.544593 0.138500
vt 0.545036 0.016086
vt 0.531923 0.421501
vt 0.773022 0.434466
vt 0.767566 0.429010
vt 0.767453 0.524925
vt 0.761997 0.530381
vt 0.618545 0.530381
vt 0.005456 0.530381
vt 0.000000 0.524925
vt 0.007760 0.426703
vt 0.013216 0.421246
vt 0.095652 0.424582
vt 0.196951 0.421246
vt 0.108364 0.141080
vt 0.632155 0.002307
vt 0.531923 0.527348
vt 0.544875 0.000728
vt 0.413216 0.530381
vt 0.426404 0.000000
vt 0.270456 0.530381
vt 0.283052 0.001401
vt 0.196951 0.527055
vt 0.780418 0.008226
vt 0.792744 0.128400
vt 0.019248 0.142021
vt 0.007495 0.015269
vn -0.996894 0.000000 0.078757
vn -0.996894 0.000000 0.078757
vn -0.996894 0.000000 0.078757
vn -0.996894 0.000000 0.078757
vn 0.000000 0.000000 -1.000000
vn 0.000000 0.000000 -1.000000
vn 0.017347 0.000000 -0.999850
vn 0.017347 0.000000 -0.999850
vn 0.998111 0.000000 -0.061437
vn 0.998111 0.000000 -0.061437
vn 0.998111 0.000000 -0.061437
vn 0.998111 0.000000 -0.061437
vn 0.000000 0.000000 1.000000
vn 0.000000 0.000000 1.000000
vn 0.040435 0.000000 0.999182
vn 0.040435 0.000000 0.999182
vn 0.000000 1.000000 0.000000
vn 0.000000 1.000000 -0.000001
vn 0.000000 1.000000 -0.000000
vn 0.000000 1.000000 -0.000001
vn 0.000000 1.000000 0.000003
vn 0.000000 1.000000 0.000000
vn -0.013176 0.000000 -0.999913
vn -0.013176 0.000000 -0.999913
vn 0.000000 0.000000 -1.000000
vn 0.000000 0.000000 -1.000000
vn 0.000000 -1.000000 0.000000
vn 0.000000 -1.000000 0.000000
vn 0.000000 -1.000000 0.000000
vn 0.000000 -1.000000 0.000000
vn 0.000000 -1.000000 0.000000
vn 0.000000 -1.000000 0.000000
vn 0.052036 0.000000 0.998645
vn 0.052036 0.000000 0.998645
vn 0.034554 0.000000 0.999403
vn 0.034554 0.000000 0.999403
vn -0.000000 0.000000 -1.000000
vn -0.000000 0.000000 -1.000000
vn -0.015360 0.000000 -0.999882
vn -0.015362 0.000000 -0.999882
vn 0.000000 1.000000 0.000000
vn 0.000000 1.000000 0.000000
vn 0.000000 1.000000 0.000000
vn 0.000000 1.000000 0.000000
vn -0.003075 -0.000000 0.999995
vn -0.003075 -0.000000 0.999995
vn -0.019080 0.000000 0.999818
vn -0.019080 0.000000 0.999818
vn 0.000000 -1.000000 0.000000
vn 0.000000 -1.000000 0.000000
vn 0.000000 -1.000000 0.000000
vn 0.000000 -1.000000 0.000000
vn 0.011594 0.000000 -0.999933
vn 0.011594 0.000000 -0.999933
vn 0.000000 1.000000 0.000000
vn 0.000000 1.000000 0.000000
vn -0.001462 -0.000000 0.999999
vn -0.001462 -0.000000 0.999999
vn 0.000000 -1.000000 0.000000
vn 0.000000 -1.000000 0.000000
vn 0.000000 0.000000 -1.000000
vn 0.000000 0.000000 -1.000000
vn 0.000000 1.000000 0.000000
vn 0.000000 1.000000 0.000000
vn 0.003239 0.000000 0.999995
vn 0.003239 0.000000 0.999995
vn 0.000000 -1.000000 0.000000
vn 0.000000 -1.000000 0.000000
vn 0.000000 1.000000 0.000000
vn 0.000000 1.000000 0.000000
vn 0.000000 -1.000000 -0.000000
vn 0.000000 -1.000000 0.000000
vn 0.000000 -1.000000 -0.000000
vn 0.000000 -1.000000 -0.000000
vn 0.000000 -1.000000 0.000000
vn 0.000000 -1.000000 0.000000
vn 0.000000 1.000000 0.000000
vn 0.000000 1.000000 0.000000
vn 0.000000 1.000000 -0.000002
vn 0.000000 1.000000 0.000000
vn -0.707106 0.000000 0.707107
vn -0.707106 0.000000 0.707107
vn -0.707106 0.000000 0.707107
vn -0.707106 0.000000 0.707107
vn -0.707106 0.000000 -0.707108
vn -0.707106 0.000000 -0.707108
vn -0.707106 0.000000 -0.707108
vn -0.707106 0.000000 -0.707108
vn 0.706931 0.000000 -0.707282
vn 0.706931 0.000000 -0.707282
vn 0.706931 0.000000 -0.707282
vn 0.706931 0.000000 -0.707282
vn 0.707106 0.000000 0.707107
vn 0.707106 0.000000 0.707107
vn 0.707106 0.000000 0.707107
vn 0.707106 0.000000 0.707107
s off
g group1 polySurface22
usemtl standardSurface1SG
f 138/161/257 140/162/258 144/163/259 142/164/260
s 1
f 141/223/261 143/166/262 133/167/263 134/212/264
s off
f 145/169/265 148/170/266 152/171/267 150/172/268
s 2
f 135/173/269 136/174/270 139/175/271 137/176/272
s 3
f 133/167/273 143/166/274 136/174/275
f 143/166/274 144/163/276 136/174/275
f 139/175/277 136/174/275 140/162/278
f 136/174/275 144/163/276 140/162/278
s 1
f 129/177/279 130/178/280 147/179/281 146/180/282
s 5
f 132/181/283 129/205/284 149/202/285
f 149/202/285 129/205/284 150/201/286
f 146/204/287 145/203/288 129/205/284
f 129/205/284 145/203/288 150/201/286
s 2
f 149/221/289 151/183/290 131/184/291 132/213/292
s 1
f 114/185/293 113/186/294 118/187/295 117/188/296
s 3
f 119/189/297 118/187/298 113/186/299 116/190/300
s 2
f 120/219/301 119/189/302 116/190/303 115/192/304
s 5
f 115/211/305 114/220/306 117/218/307 120/191/308
s 1
f 117/188/296 118/187/295 122/193/309 121/194/310
s 3
f 123/195/311 122/193/312 118/187/298 119/189/297
s 2
f 124/217/313 123/195/314 119/189/302 120/219/301
s 5
f 120/191/308 117/218/307 121/216/315 124/196/316
s 1
f 121/194/310 122/193/309 126/197/317 125/198/318
s 3
f 127/199/319 126/197/320 122/193/312 123/195/311
s 2
f 128/215/321 127/199/322 123/195/314 124/217/313
s 5
f 124/196/316 121/216/315 125/214/323 128/200/324
s 1
f 125/198/318 126/197/317 130/178/280 129/177/279
s 3
f 131/184/325 130/178/326 126/197/320 127/199/319
s 2
f 132/213/292 131/184/291 127/199/322 128/215/321
s 5
f 128/200/324 125/214/323 129/205/284 132/181/283
s 1
f 134/212/264 133/167/263 113/186/294 114/185/293
s 5
f 135/210/327 134/168/328 114/220/306 115/211/305
s 2
f 115/192/304 116/190/303 136/174/270 135/173/269
s 3
f 116/190/300 113/186/299 133/167/273 136/174/275
s 5
f 134/168/328 135/210/327 141/206/329
f 141/206/329 135/210/327 142/207/330
f 137/209/331 138/208/332 135/210/327
f 142/207/330 135/210/327 138/208/332
s 3
f 131/184/325 151/183/333 130/178/326
f 151/183/333 152/171/334 130/178/326
f 147/179/335 130/178/326 148/170/336
f 148/170/336 130/178/326 152/171/334
s off
f 138/161/337 137/224/338 139/175/339 140/162/340
f 141/165/341 142/164/342 144/163/343 143/166/344
f 145/169/345 146/222/346 147/179/347 148/170/348
f 149/182/349 150/172/350 152/171/351 151/183/352
g default
v 2.575267 2.787518 1.461899
v 2.772698 2.787518 1.461899
v 2.575267 3.094311 1.461899
v 2.772698 3.094311 1.461899
v 2.575267 3.094311 -2.007304
v 2.772698 3.094311 -2.007304
v 2.575267 2.787518 -2.007304
v 2.772698 2.787518 -2.007304
v 2.476551 2.864216 1.461899
v 2.476551 3.017612 1.461899
v 2.871414 2.864216 1.461899
v 2.871414 3.017612 1.461899
v 2.476551 3.094311 0.594598
v 2.476551 3.094311 -1.140003
v 2.871414 3.094311 0.594598
v 2.871414 3.094311 -1.140003
v 2.476551 3.017612 -2.007304
v 2.476551 2.864216 -2.007304
v 2.871414 3.017612 -2.007304
v 2.871414 2.864216 -2.007304
v 2.476551 2.787518 -1.140003
v 2.476551 2.787518 0.594598
v 2.871414 2.787518 -1.140003
v 2.871414 2.787518 0.594598
vt 0.828694 0.338241
vt 0.834022 0.259409
vt 0.841229 0.338125
vt 0.867754 0.259316
vt 0.868812 0.345470
vt 0.860291 0.338454
vt 0.807696 0.261861
vt 0.815070 0.338378
vt 0.841179 0.365346
vt 0.888024 0.338280
vt 0.894126 0.261532
vt 0.899133 0.338473
vt 0.812828 0.032055
vt 0.806575 0.108700
vt 0.801725 0.031777
vt 0.892705 0.108271
vt 0.867202 0.011463
vt 0.858288 0.004747
vt 0.833080 0.109659
vt 0.828211 0.032305
vt 0.840768 0.032203
vt 0.871566 0.031994
vt 0.866418 0.110700
vt 0.858711 0.031985
vt 0.867407 0.025083
vt 0.831935 0.025479
vt 0.885181 0.031755
vt 0.896267 0.031184
vt 0.840634 0.004936
vt 0.831874 0.011845
vt 0.859112 0.365727
vt 0.868273 0.359104
vt 0.832329 0.358346
vt 0.803976 0.338865
vt 0.872796 0.338145
vt 0.832452 0.344730
vn -0.612047 -0.787747 0.069663
vn -0.612047 -0.787747 0.069663
vn -0.612047 -0.787747 0.069663
vn 0.612047 -0.787747 0.069663
vn 0.612047 -0.787747 0.069663
vn 0.612047 -0.787747 0.069663
vn -0.612048 0.787746 0.069663
vn -0.612048 0.787746 0.069663
vn -0.612048 0.787746 0.069663
vn 0.612048 0.787746 0.069663
vn 0.612048 0.787746 0.069663
vn 0.612048 0.787746 0.069663
vn -0.612048 0.787746 -0.069663
vn -0.612048 0.787746 -0.069663
vn -0.612048 0.787746 -0.069663
vn 0.000000 0.000000 1.000000
vn 0.000000 0.000000 1.000000
vn 0.000000 0.000000 1.000000
vn 0.000000 0.000000 1.000000
vn 0.000000 0.000000 1.000000
vn 0.000000 0.000000 1.000000
vn 0.000000 0.000000 1.000000
vn 0.000000 0.000000 1.000000
vn 0.612048 0.787746 -0.069663
vn 0.612048 0.787746 -0.069663
vn 0.612048 0.787746 -0.069663
vn -0.612047 -0.787747 -0.069663
vn -0.612047 -0.787747 -0.069663
vn -0.612047 -0.787747 -0.069663
vn 0.612047 -0.787747 -0.069663
vn 0.612047 -0.787747 -0.069663
vn 0.612047 -0.787747 -0.069663
vn -1.000000 0.000000 0.000000
vn -1.000000 0.000000 0.000000
vn -1.000000 0.000000 0.000000
vn -1.000000 0.000000 0.000000
vn -1.000000 0.000000 0.000000
vn -1.000000 0.000000 0.000000
vn -1.000000 0.000000 0.000000
vn -1.000000 0.000000 0.000000
vn 1.000000 0.000000 0.000000
vn 1.000000 -0.000001 0.000000
vn 1.000000 -0.000000 0.000000
vn 1.000000 0.000001 0.000000
vn 1.000000 0.000000 0.000000
vn 1.000000 0.000000 0.000000
vn 1.000000 0.000000 0.000000
vn 1.000000 0.000002 0.000000
vn 0.000000 -1.000000 0.000000
vn 0.000000 -1.000000 0.000000
vn 0.000000 -1.000000 0.000000
vn 0.000000 -1.000000 0.000000
vn 0.000000 -1.000000 0.000000
vn 0.000000 -1.000000 0.000000
vn 0.000000 -1.000000 0.000000
vn 0.000000 -1.000000 0.000000
vn -0.000004 0.000000 -1.000000
vn -0.000000 0.000000 -1.000000
vn -0.000000 0.000000 -1.000000
vn 0.000000 0.000000 -1.000000
vn 0.000000 0.000000 -1.000000
vn 0.000000 0.000000 -1.000000
vn 0.000000 0.000000 -1.000000
vn 0.000000 0.000000 -1.000000
s off
g group1 pCube5
usemtl standardSurface1SG
f 161/225/353 174/226/354 153/227/355
f 176/228/356 163/259/357 154/230/358
f 165/231/359 162/232/360 155/258/361
f 164/234/362 167/235/363 156/236/364
f 169/237/365 166/238/366 157/239/367
s 1
f 161/260/368 153/227/369 162/257/370
f 153/227/369 154/230/371 162/257/370
f 154/230/371 163/229/372 162/257/370
f 163/229/372 164/256/373 162/257/370
f 164/256/373 156/255/374 162/257/370
f 156/255/374 155/233/375 162/257/370
s off
f 168/240/376 171/251/377 158/252/378
f 173/243/379 170/244/380 159/245/381
f 172/246/382 175/247/383 160/248/384
s 2
f 170/244/385 173/243/386 169/237/387
f 173/243/386 174/226/388 169/237/387
f 174/226/388 161/225/389 169/237/387
f 161/225/389 162/232/390 169/237/387
f 162/232/390 165/231/391 169/237/387
f 165/231/391 166/238/392 169/237/387
s 3
f 163/259/393 176/228/394 164/234/395
f 176/228/394 175/247/396 164/234/395
f 175/247/396 172/246/397 164/234/395
f 172/246/397 171/251/398 164/234/395
f 171/251/398 168/240/399 164/234/395
f 168/240/399 167/235/400 164/234/395
s 4
f 173/243/401 159/245/402 174/226/403
f 159/245/402 160/248/404 174/226/403
f 160/248/404 175/247/405 174/226/403
f 175/247/405 176/228/406 174/226/403
f 176/228/406 154/230/407 174/226/403
f 154/230/407 153/227/408 174/226/403
s 5
f 169/254/409 157/253/410 170/250/411
f 157/253/410 158/242/412 170/250/411
f 158/242/412 171/241/413 170/250/411
f 171/241/413 172/249/414 170/250/411
f 172/249/414 160/248/415 170/250/411
f 160/248/415 159/245/416 170/250/411
g default
v -3.721783 2.787518 1.461899
v -3.524352 2.787518 1.461899
v -3.721783 3.094311 1.461899
v -3.524352 3.094311 1.461899
v -3.721783 3.094311 -2.007304
v -3.524352 3.094311 -2.007304
v -3.721783 2.787518 -2.007304
v -3.524352 2.787518 -2.007304
v -3.820500 2.864216 1.461899
v -3.820500 3.017612 1.461899
v -3.425636 2.864216 1.461899
v -3.425636 3.017612 1.461899
v -3.820500 3.094311 0.594598
v -3.820500 3.094311 -1.140003
v -3.425636 3.094311 0.594598
v -3.425636 3.094311 -1.140003
v -3.820500 3.017612 -2.007304
v -3.820500 2.864216 -2.007304
v -3.425636 3.017612 -2.007304
v -3.425636 2.864216 -2.007304
v -3.820500 2.787518 -1.140003
v -3.820500 2.787518 0.594598
v -3.425636 2.787518 -1.140003
v -3.425636 2.787518 0.594598
vt 0.927964 0.338014
vt 0.933293 0.259182
vt 0.940499 0.337898
vt 0.967025 0.259089
vt 0.968082 0.345243
vt 0.959561 0.338227
vt 0.906966 0.261634
vt 0.914340 0.338151
vt 0.940450 0.365119
vt 0.987295 0.338053
vt 0.993396 0.261305
vt 0.998403 0.338246
vt 0.912098 0.031828
vt 0.905846 0.108473
vt 0.900995 0.031550
vt 0.991975 0.108044
vt 0.966473 0.011236
vt 0.957559 0.004520
vt 0.932351 0.109432
vt 0.927481 0.032078
vt 0.940039 0.031976
vt 0.970836 0.031767
vt 0.965689 0.110473
vt 0.957982 0.031758
vt 0.966677 0.024856
vt 0.931205 0.025252
vt 0.984451 0.031528
vt 0.995538 0.030957
vt 0.939904 0.004709
vt 0.931144 0.011618
vt 0.958382 0.365500
vt 0.967544 0.358877
vt 0.931599 0.358119
vt 0.903246 0.338638
vt 0.972067 0.337918
vt 0.931722 0.344503
vn -0.612043 -0.787750 0.069663
vn -0.612043 -0.787750 0.069663
vn -0.612043 -0.787750 0.069663
vn 0.612048 -0.787747 0.069663
vn 0.612048 -0.787747 0.069663
vn 0.612048 -0.787747 0.069663
vn -0.612045 0.787749 0.069663
vn -0.612045 0.787749 0.069663
vn -0.612044 0.787749 0.069663
vn 0.612049 0.787746 0.069663
vn 0.612049 0.787746 0.069663
vn 0.612049 0.787746 0.069663
vn -0.612044 0.787749 -0.069663
vn -0.612044 0.787749 -0.069663
vn -0.612044 0.787749 -0.069663
vn 0.000000 0.000000 1.000000
vn 0.000000 0.000000 1.000000
vn 0.000000 0.000000 1.000000
vn 0.000000 0.000000 1.000000
vn 0.000000 0.000000 1.000000
vn 0.000000 0.000000 1.000000
vn 0.000000 0.000000 1.000000
vn 0.000000 0.000000 1.000000
vn 0.612049 0.787746 -0.069663
vn 0.612049 0.787746 -0.069663
vn 0.612049 0.787746 -0.069663
vn -0.612043 -0.787750 -0.069663
vn -0.612043 -0.787750 -0.069663
vn -0.612043 -0.787750 -0.069663
vn 0.612048 -0.787747 -0.069663
vn 0.612048 -0.787747 -0.069663
vn 0.612048 -0.787747 -0.069663
vn -1.000000 0.000000 0.000000
vn -1.000000 -0.000007 0.000000
vn -1.000000 -0.000001 0.000000
vn -1.000000 0.000009 0.000000
vn -1.000000 0.000001 0.000000
vn -1.000000 -0.000000 0.000000
vn -1.000000 -0.000014 0.000000
vn -1.000000 0.000029 0.000000
vn 1.000000 0.000000 0.000000
vn 1.000000 0.000005 0.000000
vn 1.000000 0.000000 0.000000
vn 1.000000 -0.000005 0.000000
vn 1.000000 -0.000000 0.000000
vn 1.000000 0.000000 0.000000
vn 1.000000 -0.000000 0.000000
vn 1.000000 -0.000014 0.000000
vn 0.000000 -1.000000 0.000000
vn 0.000000 -1.000000 0.000000
vn 0.000000 -1.000000 -0.000000
vn 0.000000 -1.000000 0.000000
vn 0.000000 -1.000000 0.000000
vn 0.000000 -1.000000 0.000000
vn 0.000000 -1.000000 -0.000000
vn 0.000000 -1.000000 -0.000001
vn -0.000004 0.000000 -1.000000
vn -0.000000 0.000000 -1.000000
vn -0.000000 0.000000 -1.000000
vn 0.000000 0.000000 -1.000000
vn 0.000000 0.000000 -1.000000
vn 0.000000 0.000000 -1.000000
vn 0.000000 0.000000 -1.000000
vn 0.000000 0.000000 -1.000000
s off
g group1 pCube7
usemtl standardSurface1SG
f 185/261/417 198/262/418 177/263/419
f 200/264/420 187/295/421 178/266/422
f 189/267/423 186/268/424 179/294/425
f 188/270/426 191/271/427 180/272/428
f 193/273/429 190/274/430 181/275/431
s 1
f 185/296/432 177/263/433 186/293/434
f 177/263/433 178/266/435 186/293/434
f 178/266/435 187/265/436 186/293/434
f 187/265/436 188/292/437 186/293/434
f 188/292/437 180/291/438 186/293/434
f 180/291/438 179/269/439 186/293/434
s off
f 192/276/440 195/287/441 182/288/442
f 197/279/443 194/280/444 183/281/445
f 196/282/446 199/283/447 184/284/448
s 2
f 194/280/449 197/279/450 193/273/451
f 197/279/450 198/262/452 193/273/451
f 198/262/452 185/261/453 193/273/451
f 185/261/453 186/268/454 193/273/451
f 186/268/454 189/267/455 193/273/451
f 189/267/455 190/274/456 193/273/451
s 3
f 187/295/457 200/264/458 188/270/459
f 200/264/458 199/283/460 188/270/459
f 199/283/460 196/282/461 188/270/459
f 196/282/461 195/287/462 188/270/459
f 195/287/462 192/276/463 188/270/459
f 192/276/463 191/271/464 188/270/459
s 4
f 197/279/465 183/281/466 198/262/467
f 183/281/466 184/284/468 198/262/467
f 184/284/468 199/283/469 198/262/467
f 199/283/469 200/264/470 198/262/467
f 200/264/470 178/266/471 198/262/467
f 178/266/471 177/263/472 198/262/467
s 5
f 193/290/473 181/289/474 194/286/475
f 181/289/474 182/278/476 194/286/475
f 182/278/476 195/277/477 194/286/475
f 195/277/477 196/285/478 194/286/475
f 196/285/478 184/284/479 194/286/475
f 184/284/479 183/281/480 194/286/475
g default
v 3.092400 0.053413 -1.932617
v 2.837243 2.839661 -1.582947
v 3.092400 0.053413 -1.611816
v 2.837243 2.839661 -1.262146
v 2.771569 0.053413 -1.932617
v 2.516442 2.839661 -1.582947
v 2.771569 0.053413 -1.611816
v 2.516442 2.839661 -1.262146
vt 0.068820 0.750659
vt 0.071782 0.991214
vt 0.044665 0.994943
vt 0.041703 0.754388
vt 0.017438 0.997755
vt 0.123309 0.755860
vt 0.099071 0.993355
vt 0.096109 0.752800
vt 0.126271 0.996415
vt 0.014476 0.757200
vn 1.000000 0.000000 -0.000000
vn 1.000000 0.000000 -0.000000
vn 1.000000 0.000000 -0.000000
vn 1.000000 0.000000 -0.000000
vn -0.000000 -0.000000 1.000000
vn -0.000000 -0.000000 1.000000
vn -0.000000 -0.000000 1.000000
vn -0.000000 -0.000000 1.000000
vn -1.000000 0.000000 0.000000
vn -1.000000 0.000000 0.000000
vn -1.000000 0.000000 0.000000
vn -1.000000 0.000000 0.000000
vn 0.000000 0.000000 -1.000000
vn 0.000000 0.000000 -1.000000
vn 0.000000 0.000000 -1.000000
vn 0.000000 0.000000 -1.000000
s off
g group1 polySurface26
usemtl standardSurface1SG
f 201/297/481 202/298/482 204/299/483 203/300/484
f 203/300/485 204/299/486 208/301/487 207/306/488
f 207/302/489 208/305/490 206/303/491 205/304/492
f 205/304/493 206/303/494 202/298/495 201/297/496
g default
v -4.044135 0.053413 1.454285
v -3.789008 2.839661 1.104645
v -4.044135 0.053413 1.133484
v -3.789008 2.839661 0.783813
v -3.723304 0.053413 1.454285
v -3.468177 2.839661 1.104645
v -3.723304 0.053413 1.133484
v -3.468177 2.839661 0.783813
vt 0.429974 0.749513
vt 0.429954 0.990086
vt 0.402793 0.993478
vt 0.402813 0.752905
vt 0.375533 0.995953
vt 0.484394 0.755389
vt 0.457214 0.992565
vt 0.457234 0.751992
vt 0.484374 0.995962
vt 0.375553 0.755380
vn -1.000000 0.000000 -0.000000
vn -1.000000 0.000000 -0.000000
vn -1.000000 0.000000 -0.000000
vn -1.000000 0.000000 -0.000000
vn -0.000000 -0.000000 -1.000000
vn -0.000000 -0.000000 -1.000000
vn -0.000000 -0.000000 -1.000000
vn -0.000000 -0.000000 -1.000000
vn 1.000000 0.000000 0.000000
vn 1.000000 0.000000 0.000000
vn 1.000000 0.000000 0.000000
vn 1.000000 0.000000 0.000000
vn 0.000000 0.000000 1.000000
vn 0.000000 0.000000 1.000000
vn 0.000000 0.000000 1.000000
vn 0.000000 0.000000 1.000000
s off
g group1 polySurface21
usemtl standardSurface1SG
f 209/307/497 210/308/498 212/309/499 211/310/500
f 211/310/501 212/309/502 216/311/503 215/316/504
f 215/312/505 216/315/506 214/313/507 213/314/508
f 213/314/509 214/313/510 210/308/511 209/307/512
g default
v 2.985341 0.809336 1.241779
v 2.721398 0.809336 1.241779
v 2.957673 1.093256 1.241779
v 2.693730 1.093256 1.241779
v 2.957673 1.093256 -1.718223
v 2.693730 1.093256 -1.718223
v 2.985341 0.809336 -1.718223
v 2.721398 0.809336 -1.718223
vt 0.805856 0.933716
vt 0.493352 0.934218
vt 0.493397 0.962084
vt 0.805901 0.961582
vt 0.493304 0.904101
vt 0.805807 0.903599
vt 0.805763 0.875733
vt 0.493259 0.876235
vt 0.805949 0.991699
vt 0.493445 0.992202
vn 0.000000 1.000000 0.000000
vn 0.000000 1.000000 0.000000
vn 0.000000 1.000000 0.000000
vn 0.000000 1.000000 0.000000
vn 0.000000 -1.000000 0.000000
vn 0.000000 -1.000000 0.000000
vn 0.000000 -1.000000 0.000000
vn 0.000000 -1.000000 0.000000
vn -0.995285 -0.096990 0.000000
vn -0.995285 -0.096990 0.000000
vn -0.995285 -0.096990 0.000000
vn -0.995285 -0.096990 0.000000
vn 0.995285 0.096990 0.000000
vn 0.995285 0.096990 0.000000
vn 0.995285 0.096990 0.000000
vn 0.995285 0.096990 0.000000
s off
g group1 polySurface24
usemtl standardSurface1SG
f 219/317/513 221/318/514 222/319/515 220/320/516
f 223/321/517 217/322/518 218/323/519 224/324/520
f 218/325/521 220/320/522 222/319/523 224/326/524
f 223/321/525 221/318/526 219/317/527 217/322/528
g default
v -2.602805 3.230057 0.424927
v -2.602805 3.056702 0.424927
v -2.602805 3.056702 1.624207
v -2.602805 3.230057 1.624207
v -1.769660 3.056702 0.387207
v -1.769652 3.230057 0.387207
v -1.769660 3.230057 1.624207
v -1.769652 3.056702 1.624207
v -0.151525 3.056702 0.387207
v -0.151525 3.230057 0.387207
v -0.151525 3.230057 1.548126
v -0.151525 3.056702 1.548126
v 1.193963 3.056702 0.421570
v 1.193963 3.230057 0.421570
v 1.193963 3.230057 1.555481
v 1.193963 3.056702 1.555481
v 2.175790 3.056702 0.387207
v 2.175790 3.230057 0.387207
v 2.175790 3.230057 1.624207
v 2.175790 3.056702 1.624207
v -3.750983 3.230057 0.387207
v -3.750983 3.056702 0.387207
v -3.750983 3.056702 1.586395
v -3.750983 3.230057 1.586395
v -4.685340 3.056702 1.624207
v -4.747199 3.056702 1.562347
v -4.685340 3.230057 1.624207
v -4.747199 3.230057 1.562347
v -4.773322 3.056702 0.387207
v -4.835151 3.056702 0.449036
v -4.773322 3.230057 0.387207
v -4.835151 3.230057 0.449036
v 3.863610 3.056702 0.449036
v 3.801751 3.056702 0.387207
v 3.801751 3.230057 0.387207
v 3.863610 3.230057 0.449036
v 3.864892 3.056702 1.536194
v 3.926721 3.056702 1.474365
v 3.864892 3.230057 1.536194
v 3.926721 3.230057 1.474365
vt 0.004488 0.162735
vt 0.019053 0.165670
vt 0.015284 0.260172
vt 0.000000 0.262030
vt 0.002627 0.269682
vt 0.019447 0.266424
vt 0.108302 0.265423
vt 0.095539 0.748391
vt 0.795454 0.260252
vt 0.780955 0.257365
vt 0.783301 0.169171
vt 0.798591 0.167174
vt 0.107637 0.143495
vt 0.108314 0.158816
vt 0.023358 0.160028
vt 0.022620 0.144848
vt 0.631039 0.281661
vt 0.630725 0.266395
vt 0.776434 0.262881
vt 0.777165 0.278142
vt 0.617814 0.639386
vt 0.795838 0.159581
vt 0.779141 0.163185
vt 0.631518 0.157278
vt 0.209593 0.278372
vt 0.209662 0.263035
vt 0.283480 0.265119
vt 0.283359 0.280386
vt 0.282630 0.156383
vt 0.209488 0.156500
vt 0.270136 0.639386
vt 0.209244 0.141201
vt 0.425698 0.264379
vt 0.425802 0.279674
vt 0.425907 0.161680
vt 0.412728 0.646090
vt 0.544333 0.262809
vt 0.544287 0.278139
vt 0.544731 0.161854
vt 0.531294 0.645442
vt 0.772108 0.652590
vt 0.766658 0.647141
vt 0.766546 0.742942
vt 0.761096 0.748391
vt 0.617814 0.748391
vt 0.005450 0.748391
vt 0.000000 0.742942
vt 0.007751 0.644836
vt 0.013201 0.639386
vt 0.095539 0.642718
vt 0.196718 0.639386
vt 0.108303 0.280718
vt 0.631800 0.142022
vt 0.531294 0.745362
vt 0.544569 0.146504
vt 0.412727 0.748391
vt 0.426165 0.146383
vt 0.270136 0.748391
vt 0.282894 0.141117
vt 0.196718 0.745070
vt 0.779981 0.147938
vt 0.792300 0.268045
vt 0.019237 0.281658
vt 0.007491 0.154978
vn -0.996894 0.000000 0.078755
vn -0.996894 0.000000 0.078755
vn -0.996894 0.000000 0.078755
vn -0.996894 0.000000 0.078755
vn 0.000000 0.000000 -1.000000
vn 0.000000 0.000000 -1.000000
vn 0.017376 0.000000 -0.999849
vn 0.017376 0.000000 -0.999849
vn 0.998111 0.000000 -0.061435
vn 0.998111 0.000000 -0.061435
vn 0.998111 0.000000 -0.061435
vn 0.998111 0.000000 -0.061435
vn 0.000000 0.000000 1.000000
vn 0.000000 0.000000 1.000000
vn 0.040435 0.000000 0.999182
vn 0.040435 0.000000 0.999182
vn 0.000000 1.000000 0.000000
vn 0.000000 1.000000 -0.000001
vn 0.000000 1.000000 -0.000000
vn 0.000000 1.000000 -0.000001
vn 0.000000 1.000000 0.000003
vn 0.000000 1.000000 0.000000
vn -0.013176 0.000000 -0.999913
vn -0.013176 0.000000 -0.999913
vn 0.000000 0.000000 -1.000000
vn 0.000000 0.000000 -1.000000
vn 0.000000 -1.000000 0.000000
vn 0.000000 -1.000000 0.000000
vn 0.000000 -1.000000 0.000000
vn 0.000000 -1.000000 0.000000
vn 0.000000 -1.000000 0.000000
vn 0.000000 -1.000000 0.000000
vn 0.052036 0.000000 0.998645
vn 0.052036 0.000000 0.998645
vn 0.007221 0.000000 0.999974
vn 0.007221 0.000000 0.999974
vn -0.000000 0.000000 -1.000000
vn -0.000000 0.000000 -1.000000
vn -0.015385 0.000000 -0.999882
vn -0.015387 0.000000 -0.999882
vn 0.000000 1.000000 0.000000
vn 0.000000 1.000000 0.000000
vn 0.000000 1.000000 0.000000
vn 0.000000 1.000000 0.000000
vn 0.031023 0.000001 0.999519
vn 0.031021 0.000001 0.999519
vn -0.019080 0.000000 0.999818
vn -0.019080 0.000000 0.999818
vn 0.000000 -1.000000 0.000000
vn 0.000000 -1.000000 0.000000
vn 0.000000 -1.000000 0.000000
vn 0.000000 -1.000000 0.000000
vn 0.011594 0.000000 -0.999933
vn 0.011594 0.000000 -0.999933
vn 0.000000 1.000000 0.000000
vn 0.000000 1.000000 0.000000
vn 0.023184 0.000001 0.999731
vn 0.023184 0.000001 0.999731
vn 0.000000 -1.000000 0.000000
vn 0.000000 -1.000000 0.000000
vn -0.000000 0.000000 -1.000000
vn -0.000000 0.000000 -1.000000
vn 0.000000 1.000000 0.000000
vn 0.000000 1.000000 0.000000
vn -0.032673 0.000000 0.999466
vn -0.032673 0.000000 0.999466
vn 0.000000 -1.000000 0.000000
vn 0.000000 -1.000000 0.000000
vn 0.000000 1.000000 0.000000
vn 0.000000 1.000000 0.000000
vn 0.000000 -1.000000 -0.000000
vn 0.000000 -1.000000 0.000000
vn 0.000000 -1.000000 -0.000000
vn 0.000000 -1.000000 -0.000000
vn 0.000000 -1.000000 0.000000
vn 0.000000 -1.000000 0.000000
vn 0.000000 1.000000 0.000000
vn 0.000000 1.000000 0.000000
vn 0.000000 1.000000 -0.000002
vn 0.000000 1.000000 0.000000
vn -0.707107 0.000000 0.707106
vn -0.707107 0.000000 0.707106
vn -0.707107 0.000000 0.707106
vn -0.707107 0.000000 0.707106
vn -0.707107 0.000000 -0.707107
vn -0.707107 0.000000 -0.707107
vn -0.707107 0.000000 -0.707107
vn -0.707107 0.000000 -0.707107
vn 0.706932 0.000000 -0.707282
vn 0.706932 0.000000 -0.707282
vn 0.706932 0.000000 -0.707282
vn 0.706932 0.000000 -0.707282
vn 0.707107 0.000000 0.707107
vn 0.707107 0.000000 0.707107
vn 0.707107 0.000000 0.707107
vn 0.707107 0.000000 0.707107
s off
g group1 polySurface28
usemtl standardSurface1SG
f 250/327/529 252/328/530 256/329/531 254/330/532
s 1
f 253/389/533 255/332/534 245/333/535 246/378/536
s off
f 257/335/537 260/336/538 264/337/539 262/338/540
s 2
f 247/339/541 248/340/542 251/341/543 249/342/544
s 3
f 245/333/545 255/332/546 248/340/547
f 255/332/546 256/329/548 248/340/547
f 251/341/549 248/340/547 252/328/550
f 248/340/547 256/329/548 252/328/550
s 1
f 241/343/551 242/344/552 259/345/553 258/346/554
s 5
f 244/347/555 241/371/556 261/368/557
f 261/368/557 241/371/556 262/367/558
f 258/370/559 257/369/560 241/371/556
f 241/371/556 257/369/560 262/367/558
s 2
f 261/387/561 263/349/562 243/350/563 244/379/564
s 1
f 226/351/565 225/352/566 230/353/567 229/354/568
s 3
f 231/355/569 230/353/570 225/352/571 228/356/572
s 2
f 232/385/573 231/355/574 228/356/575 227/358/576
s 5
f 227/377/577 226/386/578 229/384/579 232/357/580
s 1
f 229/354/568 230/353/567 234/359/581 233/360/582
s 3
f 235/361/583 234/359/584 230/353/570 231/355/569
s 2
f 236/383/585 235/361/586 231/355/574 232/385/573
s 5
f 232/357/580 229/384/579 233/382/587 236/362/588
s 1
f 233/360/582 234/359/581 238/363/589 237/364/590
s 3
f 239/365/591 238/363/592 234/359/584 235/361/583
s 2
f 240/381/593 239/365/594 235/361/586 236/383/585
s 5
f 236/362/588 233/382/587 237/380/595 240/366/596
s 1
f 237/364/590 238/363/589 242/344/552 241/343/551
s 3
f 243/350/597 242/344/598 238/363/592 239/365/591
s 2
f 244/379/564 243/350/563 239/365/594 240/381/593
s 5
f 240/366/596 237/380/595 241/371/556 244/347/555
s 1
f 246/378/536 245/333/535 225/352/566 226/351/565
s 5
f 247/376/599 246/334/600 226/386/578 227/377/577
s 2
f 227/358/576 228/356/575 248/340/542 247/339/541
s 3
f 228/356/572 225/352/571 245/333/545 248/340/547
s 5
f 246/334/600 247/376/599 253/372/601
f 253/372/601 247/376/599 254/373/602
f 249/375/603 250/374/604 247/376/599
f 254/373/602 247/376/599 250/374/604
s 3
f 243/350/597 263/349/605 242/344/598
f 263/349/605 264/337/606 242/344/598
f 259/345/607 242/344/598 260/336/608
f 260/336/608 242/344/598 264/337/606
s off
f 250/327/609 249/390/610 251/341/611 252/328/612
f 253/331/613 254/330/614 256/329/615 255/332/616
f 257/335/617 258/388/618 259/345/619 260/336/620
f 261/348/621 262/338/622 264/337/623 263/349/624
